<svg width="3571" height="1571" xmlns="http://www.w3.org/2000/svg" xmlns:xlink="http://www.w3.org/1999/xlink" xml:space="preserve" overflow="hidden"><defs><clipPath id="clip0"><rect x="456" y="358" width="3571" height="1571"/></clipPath><clipPath id="clip1"><rect x="825" y="1062" width="306" height="59"/></clipPath><clipPath id="clip2"><rect x="825" y="1062" width="306" height="59"/></clipPath></defs><g clip-path="url(#clip0)" transform="translate(-456 -358)"><path d="M690 1048.67C690 1009.64 721.639 978 760.668 978L1214.33 978C1253.36 978 1285 1009.64 1285 1048.67L1285 1331.33C1285 1370.36 1253.36 1402 1214.33 1402L760.668 1402C721.639 1402 690 1370.36 690 1331.33Z" fill="#FFDE75" fill-rule="evenodd"/><text font-family="Arial,Arial_MSFontService,sans-serif" font-weight="400" font-size="64" transform="matrix(1 0 0 1 746.317 1350)">Effects on Rivers</text><path d="M469.849 1929C462.753 1929 457 1923.25 457 1916.15L457 379.849C457 372.753 462.753 367 469.849 367L560.151 367C567.247 367 573 372.753 573 379.849L573 1916.15C573 1923.25 567.247 1929 560.151 1929Z" fill="#E97132" fill-rule="evenodd"/><text fill="#FFFFFF" font-family="Arial,Arial_MSFontService,sans-serif" font-weight="400" font-size="64" transform="matrix(-1.83697e-16 -1 1 -1.83697e-16 538.131 1463)">Hydrological Droughts</text><path d="M1467 1048.67C1467 1009.64 1498.64 978 1537.67 978L1991.33 978C2030.36 978 2062 1009.64 2062 1048.67L2062 1331.33C2062 1370.36 2030.36 1402 1991.33 1402L1537.67 1402C1498.64 1402 1467 1370.36 1467 1331.33Z" fill="#FFDE75" fill-rule="evenodd"/><text font-family="Arial,Arial_MSFontService,sans-serif" font-weight="400" font-size="64" transform="matrix(1 0 0 1 1608.5 1273)">Impacts on </text><text font-family="Arial,Arial_MSFontService,sans-serif" font-weight="400" font-size="64" transform="matrix(1 0 0 1 1601.06 1350)">Navigability</text><g><g><g><path d="M76.0325 30.7023C75.7208 30.7021 75.4591 30.4681 75.4239 30.1584 76.0554 22.9223 70.7012 16.5442 63.4649 15.9128 56.2288 15.2813 49.8507 20.6355 49.2194 27.8717 49.152 28.6437 49.1529 29.4201 49.2223 30.1919 49.2136 34.6317 51.3785 38.7949 55.0181 41.3377 54.9847 41.681 54.9691 42.0243 54.9668 42.3609 54.8329 48.6382 59.8133 53.8355 66.0906 53.9695 66.1062 53.9697 66.1216 53.9702 66.1372 53.9704 67.9546 53.9615 69.7415 53.5018 71.3378 52.6329 73.6401 54.7577 76.6555 55.9421 79.7886 55.9521L84.5078 55.9521C85.7389 55.9521 86.7369 54.9541 86.7369 53.723 86.7369 52.4918 85.7389 51.4938 84.5078 51.4938L79.8042 51.4938C77.3171 51.4867 74.9716 50.3357 73.4444 48.373 72.6889 47.4008 71.2884 47.2254 70.3164 47.9808 70.2977 47.9953 70.2792 48.01 70.2612 48.0252 69.1127 48.9777 67.6715 49.5067 66.1796 49.5232 62.3641 49.4372 59.3407 46.2742 59.4267 42.4587 59.427 42.4498 59.4272 42.4411 59.4274 42.4322 59.429 41.866 59.4963 41.302 59.628 40.7514 59.8636 39.7666 59.4058 38.7467 58.5134 38.2681 55.5096 36.6625 53.6478 33.5198 53.6828 30.1138 53.6828 30.0314 53.6828 29.9511 53.6828 29.8686 53.2094 25.0906 56.6991 20.8335 61.4771 20.3601 66.2551 19.8867 70.5122 23.3764 70.9856 28.1544 71.042 28.7244 71.042 29.2986 70.9856 29.8686 70.9856 29.9422 70.9745 30.0158 70.9745 30.0915 70.983 32.8998 73.2665 35.1694 76.0746 35.1609 76.0835 35.1609 76.0927 35.1607 76.1016 35.1607 80.1446 35.4016 83.2886 38.7701 83.2505 42.8201L83.2505 43.0787C83.2289 45.9113 85.4416 48.2586 88.2706 48.4042 90.7724 48.3966 93.1859 49.3282 95.0339 51.0145 95.93 51.8589 97.3407 51.817 98.1851 50.9209 99.0293 50.025 98.9873 48.6142 98.0914 47.7697 98.0734 47.7528 98.0551 47.7361 98.0366 47.7198 95.3808 45.2967 91.9169 43.9512 88.3219 43.9458 87.9842 43.9458 87.71 43.6728 87.7089 43.335L87.7089 42.3787C87.7126 35.9338 82.4908 30.7061 76.0458 30.7023 76.0414 30.7023 76.0369 30.7023 76.0325 30.7023Z" transform="matrix(1 0 0 1.00467 1658 987)"/><path d="M89.3049 110.152C88.5856 113.775 90.9391 117.295 94.5618 118.014 98.1846 118.733 101.704 116.38 102.424 112.757 103.143 109.135 100.79 105.615 97.1668 104.895 96.3061 104.724 95.42 104.725 94.5591 104.896 91.9075 105.427 89.8353 107.5 89.3049 110.152ZM98.099 111.458C98.099 112.69 97.101 113.688 95.8698 113.688 94.6387 113.688 93.6407 112.69 93.6407 111.458 93.6407 110.227 94.6387 109.229 95.8698 109.229 97.101 109.229 98.099 110.227 98.099 111.458Z" transform="matrix(1 0 0 1.00467 1658 987)"/><path d="M111.599 110.152C110.88 113.775 113.233 117.295 116.856 118.014 120.479 118.733 123.998 116.38 124.718 112.757 125.437 109.135 123.084 105.615 119.461 104.895 118.6 104.724 117.714 104.725 116.853 104.896 114.201 105.427 112.129 107.5 111.599 110.152ZM120.393 111.458C120.393 112.69 119.395 113.688 118.164 113.688 116.933 113.688 115.935 112.69 115.935 111.458 115.935 110.227 116.933 109.229 118.164 109.229 119.395 109.229 120.393 110.227 120.393 111.458Z" transform="matrix(1 0 0 1.00467 1658 987)"/><path d="M133.893 110.152C133.174 113.775 135.527 117.295 139.15 118.014 142.773 118.733 146.293 116.379 147.012 112.756 147.731 109.133 145.377 105.614 141.754 104.895 140.893 104.724 140.006 104.724 139.145 104.896 136.492 105.425 134.419 107.499 133.893 110.152ZM142.685 111.458C142.685 112.69 141.687 113.688 140.455 113.688 139.224 113.688 138.226 112.69 138.226 111.458 138.226 110.227 139.224 109.229 140.455 109.229 141.687 109.229 142.685 110.227 142.685 111.458Z" transform="matrix(1 0 0 1.00467 1658 987)"/><path d="M89.1823 53.7386 89.1823 66.8751 89.1823 66.8751 89.1823 71.3334 89.1823 71.3334 89.1823 91.3959 75.8073 91.3959 69.1198 91.3959 69.1198 95.8542 75.8073 95.8542 75.8073 147.794C77.3142 147.68 78.7744 147.54 80.2657 147.415L80.2657 95.8542 156.057 95.8542 156.057 135.148C157.136 134.86 158.255 134.59 159.312 134.294 159.715 134.185 160.112 134.051 160.516 133.94L160.516 95.8542 167.203 95.8542 167.203 91.3959 160.516 91.3959 149.37 91.3959 149.37 75.7917 124.849 75.7917 124.849 91.3959 113.703 91.3959 113.703 53.7386ZM93.6407 58.1969 109.245 58.1969 109.245 66.8751 93.6407 66.8751ZM93.6407 71.3334 109.245 71.3334 109.245 91.3959 93.6407 91.3959ZM129.307 80.2389 144.912 80.2389 144.912 91.3959 129.307 91.3959Z" transform="matrix(1 0 0 1.00467 1658 987)"/><path d="M196.187 125.297C195.922 125.297 195.664 125.383 195.451 125.542 184.247 130.988 172.55 135.356 160.518 138.585 132.765 146.367 101.777 150.315 75.8096 152.277 54.7105 153.862 36.9217 154.125 26.857 154.125 21.915 154.125 18.832 154.06 18.1365 154.06 16.9293 154.189 16.0473 155.26 16.1526 156.47 15.3278 170.003 20.4103 188.111 22.9961 194.754 23.2469 195.559 23.9607 196.133 24.8017 196.205L167.214 196.205C167.656 196.204 168.079 196.028 168.389 195.714 185.063 179.056 195.139 144.718 197.97 128.819 198.229 127.618 197.83 126.37 196.923 125.542 196.71 125.383 196.452 125.297 196.187 125.297ZM166.031 191.746 26.6341 191.746C24.2578 185.021 20.3033 170.139 20.5284 158.547 22.0398 158.563 24.1753 158.583 26.8548 158.583 38.0519 158.583 55.6935 158.26 76.1417 156.724 109.029 154.238 137.823 149.591 161.675 142.903 172.351 140.029 182.772 136.282 192.834 131.699 192.845 131.694 192.859 131.699 192.864 131.71 192.866 131.714 192.866 131.719 192.865 131.724 189.14 149.519 179.671 177.42 166.031 191.746Z" transform="matrix(1 0 0 1.00467 1658 987)"/></g></g></g><path d="M2253 1048.67C2253 1009.64 2284.64 978 2323.67 978L2777.33 978C2816.36 978 2848 1009.64 2848 1048.67L2848 1331.33C2848 1370.36 2816.36 1402 2777.33 1402L2323.67 1402C2284.64 1402 2253 1370.36 2253 1331.33Z" fill="#FFDE75" fill-rule="evenodd"/><text font-family="Arial,Arial_MSFontService,sans-serif" font-weight="400" font-size="64" transform="matrix(1 0 0 1 2393.99 1273)">Impacts on </text><text font-family="Arial,Arial_MSFontService,sans-serif" font-weight="400" font-size="64" transform="matrix(1 0 0 1 2345.63 1350)">Transportation</text><path d="M2253 1565.67C2253 1526.64 2284.64 1495 2323.67 1495L2777.33 1495C2816.36 1495 2848 1526.64 2848 1565.67L2848 1848.33C2848 1887.36 2816.36 1919 2777.33 1919L2323.67 1919C2284.64 1919 2253 1887.36 2253 1848.33Z" fill="#FFDE75" fill-rule="evenodd"/><text font-family="Arial,Arial_MSFontService,sans-serif" font-weight="400" font-size="64" transform="matrix(1 0 0 1 2433.54 1790)">Affected </text><text font-family="Arial,Arial_MSFontService,sans-serif" font-weight="400" font-size="64" transform="matrix(1 0 0 1 2427.51 1867)">Services</text><path d="M3030 1048.67C3030 1009.64 3061.64 978 3100.67 978L3680.33 978C3719.36 978 3751 1009.64 3751 1048.67L3751 1331.33C3751 1370.36 3719.36 1402 3680.33 1402L3100.67 1402C3061.64 1402 3030 1370.36 3030 1331.33Z" fill="#FFDE75" fill-rule="evenodd"/><text font-family="Arial,Arial_MSFontService,sans-serif" font-weight="400" font-size="64" transform="matrix(1 0 0 1 3107.87 1273)">Impacts on Riverine </text><text font-family="Arial,Arial_MSFontService,sans-serif" font-weight="400" font-size="64" transform="matrix(1 0 0 1 3203.82 1350)">Communities</text><path d="M1285.5 1187.06 1444.53 1187.06 1444.53 1193.94 1285.5 1193.94ZM1439.94 1176.75 1467.44 1190.5 1439.94 1204.25Z"/><path d="M6.51845e-06-3.4375 167.4-3.43718 167.4 3.43782-6.51845e-06 3.4375ZM162.816-13.7497 190.316 0.000360892 162.816 13.7503Z" transform="matrix(1 0 0 -1 2062.5 1190.5)"/><path d="M0-3.4375 94.4088-3.4375 94.4088 516.828 90.9713 513.391 159.025 513.391 159.025 520.266 87.5338 520.266 87.5338 0 90.9713 3.4375 0 3.4375ZM154.442 503.078 181.942 516.828 154.442 530.578Z" transform="matrix(1 0 0 -1 2848.5 1707.33)"/><path d="M2848.5 1187.06 3007.53 1187.06 3007.53 1193.94 2848.5 1193.94ZM3002.94 1176.75 3030.44 1190.5 3002.94 1204.25Z"/><g><g><g><path d="M105.604 152.532C102.355 150.533 77.3596 135.786 50.1775 119.726 22.9329 103.604 0.624876 90.1071 0.624876 89.6697 0.624876 89.1698 0.874826 88.6699 1.12478 88.4824 1.37473 88.3575 11.9976 94.2938 24.6826 101.792L47.803 115.415 47.9905 89.1698C48.053 72.0482 47.928 62.6751 47.4906 62.2377 47.1157 61.8627 46.8657 50.7399 46.8657 30.8064 46.8657 0.437413 46.8657 0 48.1155 0 49.3027 0 49.3652 0.499901 49.4902 31.1188L49.6776 62.1752 63.9248 62.3626 78.1095 62.4876 78.1095 31.2438C78.1095 0.437413 78.1095 0 79.3593 0 80.5465 0 80.609 0.499901 80.734 31.1188L80.9214 62.1752 96.1059 62.3626 111.228 62.4876 111.228 31.2438C111.228 0.437413 111.228 0 112.478 0 113.727 0 113.727 0.437413 113.727 31.2438L113.727 62.4876 128.724 62.4876 143.721 62.4876 143.721 31.2438C143.721 0.437413 143.721 0 144.971 0 146.221 0 146.221 0.437413 146.221 31.2438L146.221 62.4876 161.218 62.4876 176.215 62.4876 176.215 31.2438C176.215 0.437413 176.215 0 177.465 0 178.715 0 178.715 0.437413 178.715 31.2438 178.715 51.6772 178.527 62.4876 178.09 62.4876 177.652 62.4876 177.465 71.7358 177.465 89.0448 177.465 103.667 177.59 115.602 177.777 115.602 177.965 115.602 187.9 109.853 199.835 102.855 211.77 95.7935 221.956 89.8572 222.518 89.6697 224.206 89.0448 224.518 91.1069 222.893 92.1067 221.831 92.7941 157.781 130.474 118.476 153.595 116.414 154.782 114.04 155.844 113.165 155.907 112.103 156.032 109.416 154.782 105.604 152.532ZM144.534 135.348C161.218 125.538 175.34 117.289 175.84 117.102 176.402 116.914 176.84 116.539 176.84 116.289 176.84 116.102 148.158 115.915 113.103 115.915 78.047 115.915 49.3652 116.039 49.3652 116.227 49.4277 116.914 112.853 153.719 113.477 153.47 113.915 153.282 127.85 145.159 144.534 135.348ZM174.965 89.2323 174.965 64.6747 112.978 64.7996 50.9274 64.9871 50.7399 88.5449C50.6774 101.542 50.7399 112.54 50.9274 112.915 51.1149 113.54 64.0498 113.727 113.103 113.727L174.965 113.727 174.965 89.2323Z" stroke="#000000" stroke-width="1.68717" transform="matrix(1.00909 0 0 -1 3266 1198.92)"/></g></g></g><path d="M691.5 1550.33C691.5 1509.56 724.557 1476.5 765.334 1476.5L1997.67 1476.5C2038.44 1476.5 2071.5 1509.56 2071.5 1550.33L2071.5 1845.67C2071.5 1886.44 2038.44 1919.5 1997.67 1919.5L765.334 1919.5C724.557 1919.5 691.5 1886.44 691.5 1845.67Z" stroke="#DEA900" stroke-width="6.875" stroke-miterlimit="8" fill="none" fill-rule="evenodd"/><text font-family="Arial,Arial_MSFontService,sans-serif" font-weight="400" font-size="55" transform="matrix(1 0 0 1 745.754 1585)">•</text><text font-family="Arial,Arial_MSFontService,sans-serif" font-weight="400" font-size="55" transform="matrix(1 0 0 1 807.629 1585)">Reduced channel depth</text><text font-family="Arial,Arial_MSFontService,sans-serif" font-weight="400" font-size="55" transform="matrix(1 0 0 1 745.754 1651)">•</text><text font-family="Arial,Arial_MSFontService,sans-serif" font-weight="400" font-size="55" transform="matrix(1 0 0 1 807.629 1651)">Narrower river stretches</text><text font-family="Arial,Arial_MSFontService,sans-serif" font-weight="400" font-size="55" transform="matrix(1 0 0 1 745.754 1717)">•</text><text font-family="Arial,Arial_MSFontService,sans-serif" font-weight="400" font-size="55" transform="matrix(1 0 0 1 807.629 1717)">Exposure of boulders &amp; sandbanks</text><text font-family="Arial,Arial_MSFontService,sans-serif" font-weight="400" font-size="55" transform="matrix(1 0 0 1 745.754 1783)">•</text><text font-family="Arial,Arial_MSFontService,sans-serif" font-weight="400" font-size="55" transform="matrix(1 0 0 1 807.629 1783)">Disconnections between floodplain lakes &amp; rivers</text><text font-family="Arial,Arial_MSFontService,sans-serif" font-weight="400" font-size="55" transform="matrix(1 0 0 1 745.754 1849)">•</text><text font-family="Arial,Arial_MSFontService,sans-serif" font-weight="400" font-size="55" transform="matrix(1 0 0 1 807.629 1849)">Water quality impairment</text><path d="M870.5 446.334C870.5 400.586 907.586 363.5 953.334 363.5L1955.67 363.5C2001.41 363.5 2038.5 400.586 2038.5 446.334L2038.5 777.666C2038.5 823.414 2001.41 860.5 1955.67 860.5L953.334 860.5C907.586 860.5 870.5 823.414 870.5 777.666Z" stroke="#DEA900" stroke-width="6.875" stroke-miterlimit="8" fill="none" fill-rule="evenodd"/><text font-family="Arial,Arial_MSFontService,sans-serif" font-weight="400" font-size="55" transform="matrix(1 0 0 1 927.382 467)">•</text><text font-family="Arial,Arial_MSFontService,sans-serif" font-weight="400" font-size="55" transform="matrix(1 0 0 1 989.257 467)">Constraints to dock vessels</text><text font-family="Arial,Arial_MSFontService,sans-serif" font-weight="400" font-size="55" transform="matrix(1 0 0 1 927.382 533)">•</text><text font-family="Arial,Arial_MSFontService,sans-serif" font-weight="400" font-size="55" transform="matrix(1 0 0 1 989.257 533)">Reduced navigation speed</text><text font-family="Arial,Arial_MSFontService,sans-serif" font-weight="400" font-size="55" transform="matrix(1 0 0 1 927.382 599)">•</text><text font-family="Arial,Arial_MSFontService,sans-serif" font-weight="400" font-size="55" transform="matrix(1 0 0 1 989.257 599)">Zig</text><text font-family="Arial,Arial_MSFontService,sans-serif" font-weight="400" font-size="55" transform="matrix(1 0 0 1 1065.45 599)">-</text><text font-family="Arial,Arial_MSFontService,sans-serif" font-weight="400" font-size="55" transform="matrix(1 0 0 1 1083.79 599)">zag routes to deviate from obstacles</text><text font-family="Arial,Arial_MSFontService,sans-serif" font-weight="400" font-size="55" transform="matrix(1 0 0 1 927.382 665)">•</text><text font-family="Arial,Arial_MSFontService,sans-serif" font-weight="400" font-size="55" transform="matrix(1 0 0 1 989.257 665)">Limited draught &amp; vessel load</text><text font-family="Arial,Arial_MSFontService,sans-serif" font-weight="400" font-size="55" transform="matrix(1 0 0 1 927.382 731)">•</text><text font-family="Arial,Arial_MSFontService,sans-serif" font-weight="400" font-size="55" transform="matrix(1 0 0 1 989.257 731)">Longer routes due to blocked pathways</text><text font-family="Arial,Arial_MSFontService,sans-serif" font-weight="400" font-size="55" transform="matrix(1 0 0 1 927.382 797)">•</text><text font-family="Arial,Arial_MSFontService,sans-serif" font-weight="400" font-size="55" transform="matrix(1 0 0 1 989.257 797)">Stranded boats &amp; navigation accidents</text><path d="M2128.5 444.502C2128.5 398.661 2165.66 361.5 2211.5 361.5L2947.5 361.5C2993.34 361.5 3030.5 398.661 3030.5 444.502L3030.5 776.498C3030.5 822.339 2993.34 859.5 2947.5 859.5L2211.5 859.5C2165.66 859.5 2128.5 822.339 2128.5 776.498Z" stroke="#DEA900" stroke-width="6.875" stroke-miterlimit="8" fill="none" fill-rule="evenodd"/><text font-family="Arial,Arial_MSFontService,sans-serif" font-weight="400" font-size="55" transform="matrix(1 0 0 1 2185.59 498)">•</text><text font-family="Arial,Arial_MSFontService,sans-serif" font-weight="400" font-size="55" transform="matrix(1 0 0 1 2247.47 498)">Longer trip duration</text><text font-family="Arial,Arial_MSFontService,sans-serif" font-weight="400" font-size="55" transform="matrix(1 0 0 1 2185.59 564)">•</text><text font-family="Arial,Arial_MSFontService,sans-serif" font-weight="400" font-size="55" transform="matrix(1 0 0 1 2247.47 564)">Reduced carried load per trip</text><text font-family="Arial,Arial_MSFontService,sans-serif" font-weight="400" font-size="55" transform="matrix(1 0 0 1 2185.59 630)">•</text><text font-family="Arial,Arial_MSFontService,sans-serif" font-weight="400" font-size="55" transform="matrix(1 0 0 1 2247.47 630)">Reduced availability of routes</text><text font-family="Arial,Arial_MSFontService,sans-serif" font-weight="400" font-size="55" transform="matrix(1 0 0 1 2185.59 696)">•</text><text font-family="Arial,Arial_MSFontService,sans-serif" font-weight="400" font-size="55" transform="matrix(1 0 0 1 2247.47 696)">Increased transportation </text><text font-family="Arial,Arial_MSFontService,sans-serif" font-weight="400" font-size="55" transform="matrix(1 0 0 1 2247.47 762)">costs</text><path d="M3121.5 445.501C3121.5 399.109 3159.11 361.5 3205.5 361.5L3939.5 361.5C3985.89 361.5 4023.5 399.109 4023.5 445.501L4023.5 781.499C4023.5 827.891 3985.89 865.5 3939.5 865.5L3205.5 865.5C3159.11 865.5 3121.5 827.891 3121.5 781.499Z" stroke="#DEA900" stroke-width="6.875" stroke-miterlimit="8" fill="none" fill-rule="evenodd"/><text font-family="Arial,Arial_MSFontService,sans-serif" font-weight="400" font-size="55" transform="matrix(1 0 0 1 3178.98 435)">•</text><text font-family="Arial,Arial_MSFontService,sans-serif" font-weight="400" font-size="55" transform="matrix(1 0 0 1 3240.85 435)">Scarcity of goods</text><text font-family="Arial,Arial_MSFontService,sans-serif" font-weight="400" font-size="55" transform="matrix(1 0 0 1 3178.98 501)">•</text><text font-family="Arial,Arial_MSFontService,sans-serif" font-weight="400" font-size="55" transform="matrix(1 0 0 1 3240.85 501)">Increased prices of products</text><text font-family="Arial,Arial_MSFontService,sans-serif" font-weight="400" font-size="55" transform="matrix(1 0 0 1 3178.98 567)">•</text><text font-family="Arial,Arial_MSFontService,sans-serif" font-weight="400" font-size="55" transform="matrix(1 0 0 1 3240.85 567)">Restricted access to markets </text><text font-family="Arial,Arial_MSFontService,sans-serif" font-weight="400" font-size="55" transform="matrix(1 0 0 1 3240.85 633)">and urban centres</text><text font-family="Arial,Arial_MSFontService,sans-serif" font-weight="400" font-size="55" transform="matrix(1 0 0 1 3178.98 699)">•</text><text font-family="Arial,Arial_MSFontService,sans-serif" font-weight="400" font-size="55" transform="matrix(1 0 0 1 3240.85 699)">Limited access to fishing and </text><text font-family="Arial,Arial_MSFontService,sans-serif" font-weight="400" font-size="55" transform="matrix(1 0 0 1 3240.85 765)">hunting sites</text><text font-family="Arial,Arial_MSFontService,sans-serif" font-weight="400" font-size="55" transform="matrix(1 0 0 1 3178.98 831)">•</text><text font-family="Arial,Arial_MSFontService,sans-serif" font-weight="400" font-size="55" transform="matrix(1 0 0 1 3240.85 831)">Isolation of communities</text><path d="M3030.5 1550.67C3030.5 1509.71 3063.71 1476.5 3104.67 1476.5L3949.33 1476.5C3990.29 1476.5 4023.5 1509.71 4023.5 1550.67L4023.5 1847.33C4023.5 1888.29 3990.29 1921.5 3949.33 1921.5L3104.67 1921.5C3063.71 1921.5 3030.5 1888.29 3030.5 1847.33Z" stroke="#DEA900" stroke-width="6.875" stroke-miterlimit="8" fill="none" fill-rule="evenodd"/><text font-family="Arial,Arial_MSFontService,sans-serif" font-weight="400" font-size="55" transform="matrix(1 0 0 1 3084.69 1586)">•</text><text font-family="Arial,Arial_MSFontService,sans-serif" font-weight="400" font-size="55" transform="matrix(1 0 0 1 3146.57 1586)">Food, fuel, and medicine trade</text><text font-family="Arial,Arial_MSFontService,sans-serif" font-weight="400" font-size="55" transform="matrix(1 0 0 1 3084.69 1652)">•</text><text font-family="Arial,Arial_MSFontService,sans-serif" font-weight="400" font-size="55" transform="matrix(1 0 0 1 3146.57 1652)">Energy &amp; water provision</text><text font-family="Arial,Arial_MSFontService,sans-serif" font-weight="400" font-size="55" transform="matrix(1 0 0 1 3084.69 1718)">•</text><text font-family="Arial,Arial_MSFontService,sans-serif" font-weight="400" font-size="55" transform="matrix(1 0 0 1 3146.57 1718)">Healthcare, education</text><text font-family="Arial,Arial_MSFontService,sans-serif" font-weight="400" font-size="55" transform="matrix(1 0 0 1 3084.69 1784)">•</text><text font-family="Arial,Arial_MSFontService,sans-serif" font-weight="400" font-size="55" transform="matrix(1 0 0 1 3146.57 1784)">Law enforcement, public services</text><text font-family="Arial,Arial_MSFontService,sans-serif" font-weight="400" font-size="55" transform="matrix(1 0 0 1 3084.69 1850)">•</text><text font-family="Arial,Arial_MSFontService,sans-serif" font-weight="400" font-size="55" transform="matrix(1 0 0 1 3146.57 1850)">Leisure and tourism</text><path d="M0 0 0.000360892 113.532" stroke="#DEA900" stroke-width="6.875" stroke-miterlimit="8" fill="none" fill-rule="evenodd" transform="matrix(1 0 0 -1 1765.5 979.032)"/><path d="M2550.5 979.059 2550.5 859.5" stroke="#DEA900" stroke-width="6.875" stroke-miterlimit="8" fill="none" fill-rule="evenodd"/><path d="M0 0 0.000360892 119.559" stroke="#DEA900" stroke-width="6.875" stroke-miterlimit="8" fill="none" fill-rule="evenodd" transform="matrix(1 0 0 -1 3391.5 982.059)"/><path d="M988.5 1402.5 988.5 1475.78" stroke="#DEA900" stroke-width="6.875" stroke-miterlimit="8" fill="none" fill-rule="evenodd"/><path d="M2848.5 1806.5 3030.44 1806.5" stroke="#DEA900" stroke-width="6.875" stroke-miterlimit="8" fill="none" fill-rule="evenodd"/><path d="M3.4375-1.33788e-05 3.43777 69.8099-3.43723 69.81-3.4375 1.33788e-05ZM13.7503 65.2265 0.000360892 92.7266-13.7497 65.2267Z" transform="matrix(-1 0 0 1 2550.5 1402.5)"/><g><g><g><path d="M209.882 144.564 183.871 81.7757 105.377 114.299 131.388 177.087ZM181.243 88.1201 203.538 141.938 134.014 170.733 111.721 116.915Z" transform="matrix(1.00429 0 0 1 2424 989)"/><path d="M131.434 186.674C131.312 188.56 131.034 190.432 130.604 192.271L196.863 164.857 195.004 160.372Z" transform="matrix(1.00429 0 0 1 2424 989)"/><path d="M105.94 151.567C108.082 152.111 110.166 152.866 112.16 153.819L62.1819 35.4621 57.7112 37.3504 64.825 54.1944 40.4449 64.3541C39.1998 64.8507 38.5931 66.2626 39.0896 67.5076 39.5862 68.7527 40.9983 69.3595 42.2434 68.8629 42.2662 68.8537 42.2888 68.8442 42.3114 68.8345L66.7133 58.6675Z" transform="matrix(1.00429 0 0 1 2424 989)"/><path d="M97.5688 155.333C81.4835 155.333 68.4438 168.373 68.4438 184.458 68.4438 200.544 81.4835 213.583 97.5688 213.583 113.654 213.583 126.694 200.544 126.694 184.458 126.676 168.38 113.647 155.351 97.5688 155.333ZM97.5688 208.729C84.1645 208.729 73.2979 197.863 73.2979 184.458 73.2979 171.054 84.1645 160.188 97.5688 160.188 110.973 160.188 121.84 171.054 121.84 184.458 121.825 197.857 110.967 208.714 97.5688 208.729Z" transform="matrix(1.00429 0 0 1 2424 989)"/><path d="M97.5688 172.323C90.8666 172.323 85.4334 177.756 85.4334 184.458 85.4334 191.161 90.8666 196.594 97.5688 196.594 104.271 196.594 109.704 191.161 109.704 184.458 109.696 177.759 104.268 172.331 97.5688 172.323ZM97.5688 191.74C93.5473 191.74 90.2875 188.48 90.2875 184.458 90.2875 180.437 93.5473 177.177 97.5688 177.177 101.59 177.177 104.85 180.437 104.85 184.458 104.85 188.48 101.59 191.74 97.5688 191.74Z" transform="matrix(1.00429 0 0 1 2424 989)"/></g></g></g><g><g><g><path d="M87.8751 91.7012 144.875 91.7012C148.81 91.7012 152 94.8911 152 98.8262 152 102.761 148.81 105.951 144.875 105.951L102.125 105.951C100.813 105.951 99.7501 107.015 99.7501 108.326 99.7501 109.638 100.813 110.701 102.125 110.701L144.875 110.701C151.433 110.701 156.75 105.385 156.75 98.8262 156.75 92.2679 151.433 86.9512 144.875 86.9512L87.8751 86.9512C83.5915 86.9857 79.3902 88.1314 75.6818 90.2762L8.46926 122.576C7.26281 123.091 6.70207 124.486 7.2168 125.693 7.73156 126.899 9.12687 127.46 10.3333 126.945 10.3997 126.917 10.4648 126.885 10.5284 126.851L77.9001 94.4752C80.9237 92.6902 84.3641 91.7333 87.8751 91.7012Z" transform="matrix(1 0 0 1.04824 2437 1550)"/><path d="M209 67.7066C206.815 67.6591 204.664 68.2652 202.825 69.4474L162.213 92.7225C161.074 93.3744 160.68 94.8258 161.332 95.9644 161.983 97.1029 163.435 97.4974 164.573 96.8455L205.34 73.4826C206.429 72.7786 207.705 72.421 209 72.4566 212.935 72.4566 216.125 75.6464 216.125 79.5816 216.03 81.688 215.133 83.6782 213.617 85.1438L148.492 132.763C147.246 133.701 145.73 134.213 144.17 134.221L99.7501 134.221C75.4586 134.221 55.7128 141.65 41.0685 156.308 40.125 157.22 40.0988 158.723 41.0101 159.667 41.9214 160.61 43.425 160.636 44.3684 159.725 44.3883 159.706 44.4078 159.686 44.4268 159.667 58.1496 145.939 76.7648 138.98 99.7501 138.98L144.163 138.98C146.721 138.97 149.21 138.144 151.266 136.622L216.6 88.8678 216.878 88.6303C219.369 86.271 220.816 83.0161 220.899 79.5863 220.892 73.0206 215.566 67.7025 209 67.7066Z" transform="matrix(1 0 0 1.04824 2437 1550)"/></g></g></g><path d="M2520.5 1578 2536 1562.5 2597.5 1562.5 2597.5 1609 2582 1624.5 2520.5 1624.5ZM2520.5 1578 2582 1578 2597.5 1562.5M2582 1578 2582 1624.5" stroke="#000000" stroke-width="3.4375" stroke-miterlimit="8" fill="none" fill-rule="evenodd"/><g><g><g><path d="M57.1668 60.0537 77.5835 80.4704 98.0002 60.0537 118.417 80.4704 138.834 60.0537 161.89 83.1103 164.777 80.2233 138.834 54.2798 118.417 74.6965 98.0002 54.2798 77.5835 74.6965 57.1668 54.2798 31.2233 80.2233 34.1102 83.1103 57.1668 60.0537Z" transform="matrix(-1.56122 1.91195e-16 -1.22465e-16 -1 1131 1280)"/><path d="M57.1668 121.304 77.5835 141.72 98.0002 121.304 118.417 141.72 138.834 121.304 161.89 144.36 164.777 141.473 138.834 115.53 118.417 135.947 98.0002 115.53 77.5835 135.947 57.1668 115.53 31.2233 141.473 34.1102 144.36 57.1668 121.304Z" transform="matrix(-1.56122 1.91195e-16 -1.22465e-16 -1 1131 1280)"/></g></g></g><g clip-path="url(#clip1)"><g clip-path="url(#clip2)"><g><path d="M56.6515 59.5124 76.8841 79.745 97.1168 59.5124 117.349 79.745 137.582 59.5124 160.431 82.3611 163.292 79.5002 137.582 53.7906 117.349 74.0232 97.1168 53.7906 76.8841 74.0232 56.6515 53.7906 30.9418 79.5002 33.8027 82.3611 56.6515 59.5124Z" transform="matrix(-1.57542 1.92934e-16 -1.22465e-16 -1 1131 1163.04)"/><path d="M56.6515 120.21 76.8841 140.443 97.1168 120.21 117.349 140.443 137.582 120.21 160.431 143.059 163.292 140.198 137.582 114.489 117.349 134.721 97.1168 114.489 76.8841 134.721 56.6515 114.489 30.9418 140.198 33.8027 143.059 56.6515 120.21Z" transform="matrix(-1.57542 1.92934e-16 -1.22465e-16 -1 1131 1163.04)"/></g></g></g></g></svg>