<?xml version="1.0" encoding="UTF-8" standalone="no"?>
<svg
   version="1.1"
   width="3630px"
   height="2786px"
   style="shape-rendering:geometricPrecision; text-rendering:geometricPrecision; image-rendering:optimizeQuality; fill-rule:evenodd; clip-rule:evenodd"
   id="svg459"
   sodipodi:docname="Figure5.svg"
   inkscape:version="1.3.2 (091e20e, 2023-11-25, custom)"
   xmlns:inkscape="http://www.inkscape.org/namespaces/inkscape"
   xmlns:sodipodi="http://sodipodi.sourceforge.net/DTD/sodipodi-0.dtd"
   xmlns="http://www.w3.org/2000/svg"
   xmlns:svg="http://www.w3.org/2000/svg">
  <defs
     id="defs459" />
  <sodipodi:namedview
     id="namedview459"
     pagecolor="#ffffff"
     bordercolor="#000000"
     borderopacity="0.25"
     inkscape:showpageshadow="2"
     inkscape:pageopacity="0.0"
     inkscape:pagecheckerboard="0"
     inkscape:deskcolor="#d1d1d1"
     showguides="true"
     inkscape:zoom="0.39441635"
     inkscape:cx="1627.7216"
     inkscape:cy="1915.4886"
     inkscape:window-width="2400"
     inkscape:window-height="1261"
     inkscape:window-x="2391"
     inkscape:window-y="-9"
     inkscape:window-maximized="1"
     inkscape:current-layer="svg459">
    <sodipodi:guide
       position="699.76816,2786"
       orientation="1,0"
       id="guide459"
       inkscape:locked="false" />
    <sodipodi:guide
       position="-512.73874,2606.7207"
       orientation="0,-1"
       id="guide460"
       inkscape:locked="false" />
    <sodipodi:guide
       position="157.1943,1518.3041"
       orientation="0,-1"
       id="guide483"
       inkscape:locked="false" />
    <sodipodi:guide
       position="141.63063,1984.6216"
       orientation="0,-1"
       id="guide484"
       inkscape:locked="false" />
    <sodipodi:guide
       position="172.10811,2140.5946"
       orientation="0,-1"
       id="guide485"
       inkscape:locked="false" />
    <sodipodi:guide
       position="143.42342,2294.7748"
       orientation="0,-1"
       id="guide486"
       inkscape:locked="false" />
    <sodipodi:guide
       position="173.9009,2450.7477"
       orientation="0,-1"
       id="guide487"
       inkscape:locked="false" />
  </sodipodi:namedview>
  <g
     id="g2"
     transform="matrix(1,0,0,1.4578715,0,-23.12251)">
    <path
       style="opacity:1"
       fill="#dddddd"
       d="m 1090.5,1630.5 c -1.33,0 -2.67,0 -4,0 0,-526.67 0,-1053.333 0,-1580 1,0 2,0 3,0 0.25,527.293 0.59,1053.96 1,1580 z"
       id="path2" />
  </g>
  <g
     id="g3"
     transform="matrix(1,0,0,1.4594937,0,-23.20443)">
    <path
       style="opacity:1"
       fill="#dddddd"
       d="m 1427.5,1630.5 c -1.33,0 -2.67,0 -4,0 0,-526.67 0,-1053.333 0,-1580 1,0 2,0 3,0 0.25,527.293 0.59,1053.96 1,1580 z"
       id="path3" />
  </g>
  <g
     id="g4"
     transform="matrix(1,0,0,1.4557287,0,-23.014298)">
    <path
       style="opacity:1"
       fill="#dddddd"
       d="m 1764.5,1630.5 c -1.33,0 -2.67,0 -4,0 0,-526.67 0,-1053.333 0,-1580 1,0 2,0 3,0 0.25,527.293 0.59,1053.96 1,1580 z"
       id="path4" />
  </g>
  <g
     id="g5"
     transform="matrix(1,0,0,1.1258245,0,-6.3541376)">
    <path
       style="opacity:1"
       fill="#dddddd"
       d="m 2101.5,2096.5 c -1.33,0 -2.67,0 -4,0 0,-682 0,-1364 0,-2046 1,0 2,0 3,0 0.41,682.626 0.75,1364.63 1,2046 z"
       id="path5" />
  </g>
  <g
     id="g6"
     transform="matrix(1,0,0,1.1258245,0,-6.3541376)">
    <path
       style="opacity:1"
       fill="#dddddd"
       d="m 2438.5,2096.5 c -1.33,0 -2.67,0 -4,0 0,-682 0,-1364 0,-2046 1,0 2,0 3,0 0.41,682.626 0.75,1364.63 1,2046 z"
       id="path6" />
  </g>
  <g
     id="g7"
     transform="matrix(1,0,0,1.1258245,0,-6.3541376)">
    <path
       style="opacity:1"
       fill="#dddddd"
       d="m 2775.5,2096.5 c -1.33,0 -2.67,0 -4,0 0,-682 0,-1364 0,-2046 1,0 2,0 3,0 0.41,682.626 0.75,1364.63 1,2046 z"
       id="path7" />
  </g>
  <g
     id="g8"
     transform="matrix(1,0,0,1.1258245,0,-6.3541376)">
    <path
       style="opacity:1"
       fill="#dddddd"
       d="m 3112.5,2096.5 c -1.33,0 -2.67,0 -4,0 0,-682 0,-1364 0,-2046 1,0 2,0 3,0 0.41,682.626 0.75,1364.63 1,2046 z"
       id="path8" />
  </g>
  <g
     id="g9"
     transform="translate(-2.3131221,1554.2641)">
    <path
       style="opacity:1"
       fill="#ec7d31"
       d="m 752.5,76.5 c 22,0 44,0 66,0 0,34.667 0,69.333 0,104 -22,0 -44,0 -66,0 0,-34.667 0,-69.333 0,-104 z"
       id="path9" />
  </g>
  <g
     id="g25"
     transform="translate(-0.8815833,2020)">
    <path
       style="opacity:1"
       fill="#ec7d31"
       d="m 752.5,232.5 c 10.667,0 21.333,0 32,0 0,34.333 0,68.667 0,103 -10.667,0 -21.333,0 -32,0 0,-34.333 0,-68.667 0,-103 z"
       id="path25" />
  </g>
  <g
     id="g26"
     transform="translate(-0.8815833,2020)">
    <path
       style="opacity:1"
       fill="#fbebdf"
       d="m 784.5,232.5 c 0.998,34.496 1.332,69.163 1,104 -11,0 -22,0 -33,0 0,-0.333 0,-0.667 0,-1 10.667,0 21.333,0 32,0 0,-34.333 0,-68.667 0,-103 z"
       id="path26" />
  </g>
  <g
     id="g43"
     transform="translate(-0.94637961,1711.7304)">
    <path
       style="opacity:1"
       fill="#ec7d31"
       d="m 752.5,387.5 c 10.667,0 21.333,0 32,0 0,34.667 0,69.333 0,104 -10.667,0 -21.333,0 -32,0 0,-34.667 0,-69.333 0,-104 z"
       id="path43" />
  </g>
  <g
     id="g44"
     transform="translate(-0.94637961,1711.7304)">
    <path
       style="opacity:1"
       fill="#fbebdf"
       d="m 784.5,387.5 c 0.998,34.829 1.332,69.829 1,105 -11,0 -22,0 -33,0 0,-0.333 0,-0.667 0,-1 10.667,0 21.333,0 32,0 0,-34.667 0,-69.333 0,-104 z"
       id="path44" />
  </g>
  <g
     id="g64"
     transform="translate(-2.5353904,314.38858)">
    <path
       style="opacity:1"
       fill="#ec7d31"
       d="m 752.5,542.5 c 100.333,0 200.667,0 301,0 0,34.667 0,69.333 0,104 -100.333,0 -200.667,0 -301,0 0,-34.667 0,-69.333 0,-104 z"
       id="path64" />
  </g>
  <g
     id="g80"
     transform="translate(-2.5353622,1087.6831)">
    <path
       style="opacity:1"
       fill="#ec7d31"
       d="m 752.5,698.5 c 22,0 44,0 66,0 0,34.333 0,68.667 0,103 -22,0 -44,0 -66,0 0,-34.333 0,-68.667 0,-103 z"
       id="path80" />
  </g>
  <g
     id="g91"
     transform="translate(-2.5353735,621.17104)">
    <path
       style="opacity:1"
       fill="#ec7d31"
       d="m 752.5,853.5 c 44.333,0 88.667,0 133,0 0,34.667 0,69.333 0,104 -44.333,0 -88.667,0 -133,0 0,-34.667 0,-69.333 0,-104 z"
       id="path91" />
  </g>
  <g
     id="g108"
     transform="translate(-2.5353894,154.65891)">
    <path
       style="opacity:1"
       fill="#ec7d31"
       d="m 752.5,1009.5 c 78,0 156,0 234,0 0,34.33 0,68.67 0,103 -78,0 -156,0 -234,0 0,-34.33 0,-68.67 0,-103 z"
       id="path108" />
  </g>
  <g
     id="g132"
     transform="translate(2.5353963,775.82992)">
    <path
       style="opacity:1"
       fill="#ec7d31"
       d="m 752.5,1164.5 c 10.667,0 21.333,0 32,0 0,34.67 0,69.33 0,104 -10.667,0 -21.333,0 -32,0 0,-34.67 0,-69.33 0,-104 z"
       id="path132" />
  </g>
  <g
     id="g133"
     transform="translate(2.5353963,775.82992)">
    <path
       style="opacity:1"
       fill="#fbebdf"
       d="m 784.5,1164.5 c 0.998,34.83 1.332,69.83 1,105 -11,0 -22,0 -33,0 0,-0.33 0,-0.67 0,-1 10.667,0 21.333,0 32,0 0,-34.67 0,-69.33 0,-104 z"
       id="path133" />
  </g>
  <g
     id="g151">
    <path
       style="opacity:1"
       fill="#ec7d31"
       d="m 752.5,1319.5 c 66.667,0 133.333,0 200,0 0,34.67 0,69.33 0,104 -66.667,0 -133.333,0 -200,0 0,-34.67 0,-69.33 0,-104 z"
       id="path151" />
  </g>
  <g
     id="g178"
     transform="matrix(1,0,0,0.98774644,0,0.6310586)">
    <path
       style="opacity:1"
       fill="#d8d8d8"
       d="m 3445.5,51.5 c 1,0 2,0 3,0 0.17,777 0,1554 -0.5,2331 -0.41,-0.46 -0.91,-0.79 -1.5,-1 -1,-776.67 -1.33,-1553.333 -1,-2330 z"
       id="path178" />
  </g>
  <g
     id="g177"
     transform="translate(-4.2768632e-7,-466.51211)">
    <path
       style="opacity:1"
       fill="#ec7d31"
       d="m 752.5,1475.5 c 89.333,0 178.667,0 268,0 0,34.33 0,68.67 0,103 -89.333,0 -178.667,0 -268,0 0,-34.33 0,-68.67 0,-103 z"
       id="path177" />
  </g>
  <g
     id="g204"
     transform="translate(0,-1247.4128)">
    <path
       style="opacity:1"
       fill="#ec7d31"
       d="m 752.5,1630.5 c 111.333,0 222.667,0 334,0 1.33,0 2.67,0 4,0 111,0 222,0 333,0 1.33,0 2.67,0 4,0 111,0 222,0 333,0 1.33,0 2.67,0 4,0 10.33,0 20.67,0 31,0 0,34.67 0,69.33 0,104 -347.67,0 -695.33,0 -1043,0 0,-34.67 0,-69.33 0,-104 z"
       id="path204" />
  </g>
  <g
     id="g232"
     transform="translate(0,-1244.8774)">
    <path
       style="opacity:1"
       fill="#ec7d31"
       d="m 752.5,1786.5 c 111.333,0 222.667,0 334,0 1.33,0 2.67,0 4,0 111,0 222,0 333,0 1.33,0 2.67,0 4,0 10.33,0 20.67,0 31,0 0,34.33 0,68.67 0,103 -235.33,0 -470.667,0 -706,0 0,-34.33 0,-68.67 0,-103 z"
       id="path232" />
  </g>
  <g
     id="g256">
    <path
       style="opacity:1"
       fill="#fefffe"
       d="M 1086.5,1890.5 C 1086.5,1907.5 1086.5,1924.5 1086.5,1941.5C 975.167,1941.5 863.833,1941.5 752.5,1941.5C 752.5,1924.5 752.5,1907.5 752.5,1890.5C 863.833,1890.5 975.167,1890.5 1086.5,1890.5 Z"
       id="path256" />
  </g>
  <g
     id="g260"
     transform="translate(0,-1237.2712)">
    <path
       style="opacity:1"
       fill="#ec7d31"
       d="m 752.5,1941.5 c 111.333,0 222.667,0 334,0 1,0 2,0 3,0 111.33,0 222.67,0 334,0 1,0 2,0 3,0 10.67,0 21.33,0 32,0 0,34.33 0,68.67 0,103 -235.33,0 -470.667,0 -706,0 0,-34.33 0,-68.67 0,-103 z"
       id="path260" />
  </g>
  <g
     id="g276">
    <path
       style="opacity:1"
       fill="#fefffe"
       d="M 1086.5,2045.5 C 1086.5,2062.5 1086.5,2079.5 1086.5,2096.5C 975.167,2096.5 863.833,2096.5 752.5,2096.5C 752.5,2079.5 752.5,2062.5 752.5,2045.5C 863.833,2045.5 975.167,2045.5 1086.5,2045.5 Z"
       id="path276" />
  </g>
  <g
     id="g280"
     transform="translate(0,-1866.0484)">
    <path
       style="opacity:1"
       fill="#ec7d31"
       d="m 752.5,2096.5 c 111.333,0 222.667,0 334,0 1.33,0 2.67,0 4,0 111,0 222,0 333,0 1.33,0 2.67,0 4,0 111,0 222,0 333,0 1.33,0 2.67,0 4,0 111,0 222,0 333,0 1.33,0 2.67,0 4,0 111,0 222,0 333,0 1.33,0 2.67,0 4,0 111,0 222,0 333,0 1.33,0 2.67,0 4,0 111,0 222,0 333,0 1.33,0 2.67,0 4,0 21.67,0 43.33,0 65,0 0,34.67 0,69.33 0,104 -808.33,0 -1616.67,0 -2425,0 0,-34.67 0,-69.33 0,-104 z"
       id="path280" />
  </g>
  <g
     id="g318">
    <path
       style="opacity:1"
       fill="#fefffe"
       d="M 1086.5,2201.5 C 1086.5,2218.5 1086.5,2235.5 1086.5,2252.5C 975.167,2252.5 863.833,2252.5 752.5,2252.5C 752.5,2235.5 752.5,2218.5 752.5,2201.5C 863.833,2201.5 975.167,2201.5 1086.5,2201.5 Z"
       id="path318" />
  </g>
  <g
     id="g334"
     transform="translate(-1.4646081,-2179.1815)">
    <path
       style="opacity:1"
       fill="#ec7d31"
       d="m 752.5,2252.5 c 111.333,0 222.667,0 334,0 1.33,0 2.67,0 4,0 111,0 222,0 333,0 1.33,0 2.67,0 4,0 111,0 222,0 333,0 1.33,0 2.67,0 4,0 111,0 222,0 333,0 1.33,0 2.67,0 4,0 111,0 222,0 333,0 1.33,0 2.67,0 4,0 111,0 222,0 333,0 1.33,0 2.67,0 4,0 111,0 222,0 333,0 1.33,0 2.67,0 4,0 44.33,0 88.67,0 133,0 0,34.33 0,68.67 0,103 -831,0 -1662,0 -2493,0 0,-34.33 0,-68.67 0,-103 z"
       id="path334" />
  </g>
  <g
     id="g375"
     transform="translate(-1.4646081,-2179.1815)">
    <path
       style="opacity:1"
       fill="#dddddd"
       d="m 1086.5,2356.5 c 1,0 2,0 3,0 0.04,8.15 0.37,15.98 1,23.5 -1.06,1.19 -2.4,1.69 -4,1.5 0,-8.33 0,-16.67 0,-25 z"
       id="path375" />
  </g>
  <g
     id="g376"
     transform="translate(-1.4646081,-2179.1815)">
    <path
       style="opacity:1"
       fill="#dddddd"
       d="m 1423.5,2356.5 c 1,0 2,0 3,0 0.04,8.15 0.37,15.98 1,23.5 -1.06,1.19 -2.4,1.69 -4,1.5 0,-8.33 0,-16.67 0,-25 z"
       id="path376" />
  </g>
  <g
     id="g377"
     transform="translate(-1.4646081,-2179.1815)">
    <path
       style="opacity:1"
       fill="#dddddd"
       d="m 1760.5,2356.5 c 1,0 2,0 3,0 0.04,8.15 0.37,15.98 1,23.5 -1.06,1.19 -2.4,1.69 -4,1.5 0,-8.33 0,-16.67 0,-25 z"
       id="path377" />
  </g>
  <g
     id="g378"
     transform="translate(-1.4646081,-2179.1815)">
    <path
       style="opacity:1"
       fill="#dddddd"
       d="m 2097.5,2356.5 c 1,0 2,0 3,0 0.04,8.15 0.37,15.98 1,23.5 -1.06,1.19 -2.4,1.69 -4,1.5 0,-8.33 0,-16.67 0,-25 z"
       id="path378" />
  </g>
  <g
     id="g379"
     transform="translate(-1.4646081,-2179.1815)">
    <path
       style="opacity:1"
       fill="#dddddd"
       d="m 2434.5,2356.5 c 1,0 2,0 3,0 0.04,8.15 0.37,15.98 1,23.5 -1.06,1.19 -2.4,1.69 -4,1.5 0,-8.33 0,-16.67 0,-25 z"
       id="path379" />
  </g>
  <g
     id="g380"
     transform="translate(-1.4646081,-2179.1815)">
    <path
       style="opacity:1"
       fill="#dddddd"
       d="m 2771.5,2356.5 c 1,0 2,0 3,0 0.04,8.15 0.37,15.98 1,23.5 -1.06,1.19 -2.4,1.69 -4,1.5 0,-8.33 0,-16.67 0,-25 z"
       id="path380" />
  </g>
  <g
     id="g381"
     transform="translate(-1.4646081,-2179.1815)">
    <path
       style="opacity:1"
       fill="#dddddd"
       d="m 3108.5,2356.5 c 1,0 2,0 3,0 0.04,8.15 0.37,15.98 1,23.5 -1.06,1.19 -2.4,1.69 -4,1.5 0,-8.33 0,-16.67 0,-25 z"
       id="path381" />
  </g>
  <g
     id="g383">
    <path
       style="opacity:1"
       fill="#020202"
       d="M 1072.5,2432.5 C 1073.5,2432.5 1074.5,2432.5 1075.5,2432.5C 1075.5,2447.83 1075.5,2463.17 1075.5,2478.5C 1073.83,2478.5 1072.17,2478.5 1070.5,2478.5C 1070.83,2466.81 1070.5,2455.15 1069.5,2443.5C 1066.6,2446.08 1063.26,2447.75 1059.5,2448.5C 1060.05,2443.76 1062.72,2440.6 1067.5,2439C 1069.54,2437.07 1071.21,2434.91 1072.5,2432.5 Z"
       id="path383" />
  </g>
  <g
     id="g384">
    <path
       style="opacity:1"
       fill="#0e0e0e"
       d="M 746.5,2432.5 C 757.249,2431.74 763.415,2436.74 765,2447.5C 766.353,2456.93 765.019,2465.93 761,2474.5C 752.248,2481.86 744.582,2480.86 738,2471.5C 734.104,2459.84 734.771,2448.5 740,2437.5C 741.965,2435.45 744.132,2433.78 746.5,2432.5 Z"
       id="path384" />
  </g>
  <g
     id="g385">
    <path
       style="opacity:1"
       fill="#111111"
       d="M 1101.5,2432.5 C 1111.38,2431.54 1117.54,2435.87 1120,2445.5C 1121.22,2455.11 1120.22,2464.44 1117,2473.5C 1108.85,2481.77 1101.19,2481.43 1094,2472.5C 1088.85,2460.12 1089.52,2448.12 1096,2436.5C 1098.02,2435.3 1099.85,2433.97 1101.5,2432.5 Z"
       id="path385" />
  </g>
  <g
     id="g386">
    <path
       style="opacity:1"
       fill="#090909"
       d="M 1402.5,2432.5 C 1419.38,2431.97 1424.55,2439.31 1418,2454.5C 1411.99,2460.68 1405.82,2466.68 1399.5,2472.5C 1406.8,2473.5 1414.14,2473.83 1421.5,2473.5C 1421.5,2475.17 1421.5,2476.83 1421.5,2478.5C 1411.5,2478.5 1401.5,2478.5 1391.5,2478.5C 1391.46,2475.58 1392.29,2472.91 1394,2470.5C 1400.03,2464.13 1406.36,2458.13 1413,2452.5C 1418.07,2441.56 1414.57,2436.73 1402.5,2438C 1399.68,2440.14 1398.35,2442.97 1398.5,2446.5C 1396.5,2446.5 1394.5,2446.5 1392.5,2446.5C 1392.91,2439.67 1396.24,2435.01 1402.5,2432.5 Z"
       id="path386" />
  </g>
  <g
     id="g387">
    <path
       style="opacity:1"
       fill="#0d0d0d"
       d="M 1439.5,2432.5 C 1448.86,2432.02 1454.7,2436.36 1457,2445.5C 1458.08,2454.33 1457.41,2462.99 1455,2471.5C 1449.03,2480.41 1441.69,2481.75 1433,2475.5C 1430.89,2472.51 1429.56,2469.17 1429,2465.5C 1427.83,2456.63 1428.5,2447.96 1431,2439.5C 1433.44,2436.55 1436.27,2434.21 1439.5,2432.5 Z"
       id="path387" />
  </g>
  <g
     id="g388">
    <path
       style="opacity:1"
       fill="#101010"
       d="M 1738.5,2432.5 C 1752.06,2431.55 1757.56,2437.55 1755,2450.5C 1753.59,2451.79 1752.09,2452.95 1750.5,2454C 1756.08,2455.49 1758.75,2459.16 1758.5,2465C 1756.18,2477.5 1748.84,2481.84 1736.5,2478C 1731.66,2475.48 1729.66,2471.65 1730.5,2466.5C 1731.77,2465.57 1733.1,2465.41 1734.5,2466C 1736.07,2473.24 1740.4,2475.91 1747.5,2474C 1752.67,2470.23 1753.83,2465.4 1751,2459.5C 1748.02,2456.9 1744.52,2455.9 1740.5,2456.5C 1740.5,2454.83 1740.5,2453.17 1740.5,2451.5C 1748.88,2452.28 1752.05,2448.62 1750,2440.5C 1745.67,2436.5 1741.33,2436.5 1737,2440.5C 1735.99,2442.02 1735.49,2443.69 1735.5,2445.5C 1729.87,2446.38 1728.37,2444.38 1731,2439.5C 1733.4,2436.93 1735.9,2434.6 1738.5,2432.5 Z"
       id="path388" />
  </g>
  <g
     id="g389">
    <path
       style="opacity:1"
       fill="#0d0d0d"
       d="M 1776.5,2432.5 C 1785.82,2431.97 1791.65,2436.3 1794,2445.5C 1794.67,2452.5 1794.67,2459.5 1794,2466.5C 1789.7,2479.86 1781.7,2482.86 1770,2475.5C 1768.29,2473.04 1766.96,2470.38 1766,2467.5C 1765.33,2459.83 1765.33,2452.17 1766,2444.5C 1767.96,2439.04 1771.46,2435.04 1776.5,2432.5 Z"
       id="path389" />
  </g>
  <g
     id="g390">
    <path
       style="opacity:1"
       fill="#050505"
       d="M 2084.5,2432.5 C 2086.17,2432.5 2087.83,2432.5 2089.5,2432.5C 2089.5,2442.5 2089.5,2452.5 2089.5,2462.5C 2091.5,2462.5 2093.5,2462.5 2095.5,2462.5C 2095.5,2464.17 2095.5,2465.83 2095.5,2467.5C 2093.5,2467.5 2091.5,2467.5 2089.5,2467.5C 2089.5,2471.17 2089.5,2474.83 2089.5,2478.5C 2087.83,2478.5 2086.17,2478.5 2084.5,2478.5C 2084.5,2474.83 2084.5,2471.17 2084.5,2467.5C 2077.83,2467.5 2071.17,2467.5 2064.5,2467.5C 2064.25,2464.68 2064.75,2462.01 2066,2459.5C 2072.68,2450.79 2078.85,2441.79 2084.5,2432.5 Z"
       id="path390" />
  </g>
  <g
     id="g391">
    <path
       style="opacity:1"
       fill="#0c0c0c"
       d="M 2112.5,2432.5 C 2121.95,2431.45 2128.12,2435.45 2131,2444.5C 2131.87,2452.9 2131.54,2461.23 2130,2469.5C 2124.75,2480.17 2117.25,2482.17 2107.5,2475.5C 2105.47,2472.78 2103.97,2469.78 2103,2466.5C 2102.33,2459.5 2102.33,2452.5 2103,2445.5C 2104.49,2439.86 2107.65,2435.53 2112.5,2432.5 Z"
       id="path391" />
  </g>
  <g
     id="g392">
    <path
       style="opacity:1"
       fill="#0b0b0b"
       d="M 2431.5,2438.5 C 2424.75,2437.88 2418.41,2438.54 2412.5,2440.5C 2412.09,2443.55 2411.42,2446.55 2410.5,2449.5C 2411.79,2450.41 2413.12,2450.24 2414.5,2449C 2429.8,2448.31 2435.63,2455.48 2432,2470.5C 2424.73,2480.74 2416.07,2482.08 2406,2474.5C 2404.66,2471.98 2403.83,2469.31 2403.5,2466.5C 2407.75,2465.73 2410.25,2467.4 2411,2471.5C 2420.67,2477.08 2426.17,2474.25 2427.5,2463C 2426.26,2454.77 2421.59,2451.77 2413.5,2454C 2411.16,2456.83 2408.16,2458 2404.5,2457.5C 2405.55,2449.45 2406.89,2441.45 2408.5,2433.5C 2416.17,2433.5 2423.83,2433.5 2431.5,2433.5C 2431.5,2435.17 2431.5,2436.83 2431.5,2438.5 Z"
       id="path392" />
  </g>
  <g
     id="g393">
    <path
       style="opacity:1"
       fill="#0e0e0e"
       d="M 2449.5,2432.5 C 2458.98,2431.49 2465.14,2435.49 2468,2444.5C 2469.14,2454 2468.48,2463.34 2466,2472.5C 2458.69,2481.36 2451.02,2481.69 2443,2473.5C 2439.72,2464.45 2438.72,2455.12 2440,2445.5C 2441.49,2439.86 2444.65,2435.53 2449.5,2432.5 Z"
       id="path393" />
  </g>
  <g
     id="g394">
    <path
       style="opacity:1"
       fill="#0e0e0e"
       d="M 2768.5,2441.5 C 2767.45,2443.26 2765.78,2443.92 2763.5,2443.5C 2761.81,2438.01 2758.14,2436.18 2752.5,2438C 2746.99,2442.19 2744.83,2447.69 2746,2454.5C 2752.65,2448.2 2759.65,2447.87 2767,2453.5C 2773.54,2464.82 2771.04,2473.32 2759.5,2479C 2750.15,2480.4 2743.98,2476.57 2741,2467.5C 2740.33,2460.5 2740.33,2453.5 2741,2446.5C 2744.45,2433.72 2752.28,2429.89 2764.5,2435C 2766.73,2436.64 2768.07,2438.8 2768.5,2441.5 Z"
       id="path394" />
  </g>
  <g
     id="g395">
    <path
       style="opacity:1"
       fill="#101010"
       d="M 2789.5,2432.5 C 2797.72,2432.53 2802.88,2436.53 2805,2444.5C 2807.88,2455.4 2806.55,2465.73 2801,2475.5C 2790.52,2482.43 2782.86,2480.1 2778,2468.5C 2776.57,2460.88 2776.24,2453.21 2777,2445.5C 2778.72,2438.62 2782.88,2434.28 2789.5,2432.5 Z"
       id="path395" />
  </g>
  <g
     id="g396">
    <path
       style="opacity:1"
       fill="#090909"
       d="M 3077.5,2433.5 C 3087.5,2433.5 3097.5,2433.5 3107.5,2433.5C 3107.66,2435.2 3107.49,2436.87 3107,2438.5C 3096.81,2449.89 3091.31,2463.22 3090.5,2478.5C 3088.5,2478.5 3086.5,2478.5 3084.5,2478.5C 3085.3,2463.89 3090.3,2450.89 3099.5,2439.5C 3092.2,2438.5 3084.86,2438.17 3077.5,2438.5C 3077.5,2436.83 3077.5,2435.17 3077.5,2433.5 Z"
       id="path396" />
  </g>
  <g
     id="g397">
    <path
       style="opacity:1"
       fill="#101010"
       d="M 3126.5,2432.5 C 3134.17,2432.59 3139.34,2436.26 3142,2443.5C 3144.69,2454.22 3143.69,2464.55 3139,2474.5C 3131.34,2481.45 3124.01,2481.12 3117,2473.5C 3112.45,2461.79 3112.45,2450.13 3117,2438.5C 3119.55,2435.32 3122.72,2433.32 3126.5,2432.5 Z"
       id="path397" />
  </g>
  <g
     id="g398">
    <path
       style="opacity:1"
       fill="#0d0d0d"
       d="M 3424.5,2432.5 C 3436.23,2431.08 3442.06,2436.08 3442,2447.5C 3441.21,2450.58 3439.38,2452.75 3436.5,2454C 3444.97,2458.42 3446.8,2464.92 3442,2473.5C 3433.67,2481.5 3425.33,2481.5 3417,2473.5C 3412.2,2464.92 3414.03,2458.42 3422.5,2454C 3417.15,2450.63 3415.32,2445.8 3417,2439.5C 3419.01,2436.59 3421.51,2434.25 3424.5,2432.5 Z"
       id="path398" />
  </g>
  <g
     id="g399">
    <path
       style="opacity:1"
       fill="#101010"
       d="M 3461.5,2432.5 C 3472.25,2431.74 3478.42,2436.74 3480,2447.5C 3480.84,2454.57 3480.51,2461.57 3479,2468.5C 3475.9,2476.6 3470.07,2480.1 3461.5,2479C 3454.79,2475.61 3451.29,2470.11 3451,2462.5C 3449.4,2453.6 3450.73,2445.26 3455,2437.5C 3456.97,2435.45 3459.13,2433.78 3461.5,2432.5 Z"
       id="path399" />
  </g>
  <g
     id="g400">
    <path
       style="opacity:1"
       fill="#f9f9f9"
       d="M 747.5,2437.5 C 753.862,2436.59 757.695,2439.26 759,2445.5C 759.667,2452.5 759.667,2459.5 759,2466.5C 756.226,2474.91 751.226,2476.57 744,2471.5C 741.637,2462.98 740.971,2454.31 742,2445.5C 743.117,2442.24 744.95,2439.57 747.5,2437.5 Z"
       id="path400" />
  </g>
  <g
     id="g401">
    <path
       style="opacity:1"
       fill="#fafafa"
       d="M 1102.5,2437.5 C 1108.31,2436.65 1112.14,2438.99 1114,2444.5C 1114.87,2452.9 1114.54,2461.23 1113,2469.5C 1109.24,2475.21 1104.74,2475.88 1099.5,2471.5C 1095.46,2460.73 1095.62,2450.06 1100,2439.5C 1100.99,2438.93 1101.83,2438.27 1102.5,2437.5 Z"
       id="path401" />
  </g>
  <g
     id="g402">
    <path
       style="opacity:1"
       fill="#f9f9f9"
       d="M 1439.5,2437.5 C 1445.47,2436.3 1449.3,2438.63 1451,2444.5C 1451.67,2452.17 1451.67,2459.83 1451,2467.5C 1447.37,2475.54 1442.37,2476.54 1436,2470.5C 1432.75,2460.8 1432.75,2451.13 1436,2441.5C 1437.03,2439.97 1438.2,2438.64 1439.5,2437.5 Z"
       id="path402" />
  </g>
  <g
     id="g403">
    <path
       style="opacity:1"
       fill="#f6f6f6"
       d="M 1776.5,2437.5 C 1784.18,2437 1788.34,2440.67 1789,2448.5C 1789.99,2455.67 1789.32,2462.67 1787,2469.5C 1782.83,2475.76 1778.17,2476.09 1773,2470.5C 1769.71,2460.82 1769.71,2451.15 1773,2441.5C 1774.38,2440.29 1775.54,2438.96 1776.5,2437.5 Z"
       id="path403" />
  </g>
  <g
     id="g404">
    <path
       style="opacity:1"
       fill="#f6f6f6"
       d="M 2113.5,2437.5 C 2120.72,2436.88 2124.89,2440.22 2126,2447.5C 2126.97,2455.31 2126.3,2462.98 2124,2470.5C 2119.33,2475.83 2114.67,2475.83 2110,2470.5C 2106.71,2460.82 2106.71,2451.15 2110,2441.5C 2111.38,2440.29 2112.54,2438.96 2113.5,2437.5 Z"
       id="path404" />
  </g>
  <g
     id="g405">
    <path
       style="opacity:1"
       fill="#f9f9f9"
       d="M 2450.5,2437.5 C 2457.72,2436.88 2461.89,2440.22 2463,2447.5C 2463.77,2454.22 2463.44,2460.89 2462,2467.5C 2460.33,2473.51 2456.5,2475.67 2450.5,2474C 2448.38,2472.27 2446.88,2470.1 2446,2467.5C 2445.33,2459.83 2445.33,2452.17 2446,2444.5C 2447.01,2441.8 2448.51,2439.46 2450.5,2437.5 Z"
       id="path405" />
  </g>
  <g
     id="g406">
    <path
       style="opacity:1"
       fill="#fafafa"
       d="M 2787.5,2437.5 C 2794.27,2436.76 2798.44,2439.76 2800,2446.5C 2800.67,2452.83 2800.67,2459.17 2800,2465.5C 2797.7,2474.81 2792.7,2476.81 2785,2471.5C 2784.03,2469.61 2783.36,2467.61 2783,2465.5C 2782.33,2458.83 2782.33,2452.17 2783,2445.5C 2783.74,2442.35 2785.24,2439.68 2787.5,2437.5 Z"
       id="path406" />
  </g>
  <g
     id="g407">
    <path
       style="opacity:1"
       fill="#f9f9f9"
       d="M 3124.5,2437.5 C 3131.21,2436.27 3135.37,2438.93 3137,2445.5C 3137.67,2452.17 3137.67,2458.83 3137,2465.5C 3135.26,2473.28 3130.76,2475.78 3123.5,2473C 3121.68,2471.2 3120.52,2469.03 3120,2466.5C 3119.33,2459.5 3119.33,2452.5 3120,2445.5C 3120.74,2442.35 3122.24,2439.68 3124.5,2437.5 Z"
       id="path407" />
  </g>
  <g
     id="g408">
    <path
       style="opacity:1"
       fill="#f7f7f7"
       d="M 3425.5,2437.5 C 3435.81,2436.62 3438.81,2440.79 3434.5,2450C 3425.24,2453.29 3421.41,2450.13 3423,2440.5C 3424.04,2439.63 3424.88,2438.63 3425.5,2437.5 Z"
       id="path408" />
  </g>
  <g
     id="g409">
    <path
       style="opacity:1"
       fill="#f9f9f9"
       d="M 3461.5,2437.5 C 3468.24,2436.28 3472.41,2438.95 3474,2445.5C 3474.67,2452.17 3474.67,2458.83 3474,2465.5C 3471.8,2474.77 3466.8,2476.77 3459,2471.5C 3456.59,2463.01 3455.92,2454.34 3457,2445.5C 3457.74,2442.35 3459.24,2439.68 3461.5,2437.5 Z"
       id="path409" />
  </g>
  <g
     id="g410">
    <path
       style="opacity:1"
       fill="#bababa"
       d="M 2431.5,2438.5 C 2425.27,2439.2 2418.93,2439.87 2412.5,2440.5C 2418.41,2438.54 2424.75,2437.88 2431.5,2438.5 Z"
       id="path410" />
  </g>
  <g
     id="g411">
    <path
       style="opacity:1"
       fill="#5f5f5f"
       d="M 2768.5,2441.5 C 2769.4,2442.21 2769.74,2443.21 2769.5,2444.5C 2767.26,2444.79 2765.26,2444.46 2763.5,2443.5C 2765.78,2443.92 2767.45,2443.26 2768.5,2441.5 Z"
       id="path411" />
  </g>
  <g
     id="g412">
    <path
       style="opacity:1"
       fill="#eeeeee"
       d="M 2083.5,2442.5 C 2084.49,2448.98 2084.82,2455.65 2084.5,2462.5C 2079.79,2462.83 2075.12,2462.49 2070.5,2461.5C 2075.09,2455.31 2079.42,2448.98 2083.5,2442.5 Z"
       id="path412" />
  </g>
  <g
     id="g413">
    <path
       style="opacity:1"
       fill="#f7f7f7"
       d="M 2751.5,2454.5 C 2761.87,2453.55 2766.04,2458.22 2764,2468.5C 2761.07,2474.54 2756.57,2476.04 2750.5,2473C 2744.86,2466.35 2745.19,2460.19 2751.5,2454.5 Z"
       id="path413" />
  </g>
  <g
     id="g414">
    <path
       style="opacity:1"
       fill="#f8f8f8"
       d="M 3425.5,2456.5 C 3435.32,2455.49 3439.49,2459.82 3438,2469.5C 3435.1,2474.15 3430.94,2475.65 3425.5,2474C 3420.85,2471.1 3419.35,2466.94 3421,2461.5C 3422.37,2459.64 3423.87,2457.97 3425.5,2456.5 Z"
       id="path414" />
  </g>
  <text
     xml:space="preserve"
     style="font-size:24px;line-height:0;font-family:Arial;-inkscape-font-specification:'Arial, Normal';fill:#803300;stroke-width:1.4;stroke-dasharray:33.6, 1.4;stroke-dashoffset:0.7"
     x="339.31946"
     y="449.4834"
     id="text487"><tspan
       sodipodi:role="line"
       x="339.31946"
       y="449.4834"
       style="font-style:normal;font-variant:normal;font-weight:normal;font-stretch:normal;font-size:64px;font-family:Arial;-inkscape-font-specification:'Arial, Normal';font-variant-ligatures:normal;font-variant-caps:normal;font-variant-numeric:normal;font-variant-east-asian:normal;fill:#000000"
       id="tspan488">Food Supply</tspan></text>
  <text
     xml:space="preserve"
     style="font-size:24px;line-height:0;font-family:Arial;-inkscape-font-specification:'Arial, Normal';clip-rule:evenodd;fill:#803300;fill-rule:evenodd;stroke-width:1.4;stroke-dasharray:33.6, 1.4;stroke-dashoffset:0.7;image-rendering:optimizeQuality;shape-rendering:geometricPrecision;text-rendering:geometricPrecision"
     x="317.50024"
     y="608.88232"
     id="text487-1"><tspan
       sodipodi:role="line"
       x="317.50024"
       y="608.88232"
       style="font-style:normal;font-variant:normal;font-weight:normal;font-stretch:normal;font-size:64px;font-family:Arial;-inkscape-font-specification:'Arial, Normal';font-variant-ligatures:normal;font-variant-caps:normal;font-variant-numeric:normal;font-variant-east-asian:normal;fill:#000000"
       id="tspan488-6">Water Supply</tspan></text>
  <text
     xml:space="preserve"
     style="font-style:normal;font-variant:normal;font-weight:normal;font-stretch:normal;font-size:64px;line-height:0;font-family:Arial;-inkscape-font-specification:'Arial, Normal';font-variant-ligatures:normal;font-variant-caps:normal;font-variant-numeric:normal;font-variant-east-asian:normal;fill:#000000;stroke-width:1.4;stroke-dasharray:33.6, 1.4;stroke-dashoffset:0.7"
     x="364.25"
     y="763.55347"
     id="text489"><tspan
       sodipodi:role="line"
       id="tspan489"
       x="364.25"
       y="763.55347">Fuel Supply</tspan></text>
  <text
     xml:space="preserve"
     style="font-style:normal;font-variant:normal;font-weight:normal;font-stretch:normal;font-size:64px;line-height:0;font-family:Arial;-inkscape-font-specification:'Arial, Normal';font-variant-ligatures:normal;font-variant-caps:normal;font-variant-numeric:normal;font-variant-east-asian:normal;fill:#000000;stroke-width:1.4;stroke-dasharray:33.6, 1.4;stroke-dashoffset:0.7"
     x="134.37576"
     y="296.2641"
     id="text490"><tspan
       sodipodi:role="line"
       id="tspan490"
       x="134.37576"
       y="296.2641">Load Transportation</tspan></text>
  <text
     xml:space="preserve"
     style="font-style:normal;font-variant:normal;font-weight:normal;font-stretch:normal;font-size:64px;line-height:0;font-family:Arial;-inkscape-font-specification:'Arial, Normal';font-variant-ligatures:normal;font-variant-caps:normal;font-variant-numeric:normal;font-variant-east-asian:normal;fill:#000000;stroke-width:1.4;stroke-dasharray:33.6, 1.4;stroke-dashoffset:0.7"
     x="389.99405"
     y="86.645439"
     id="text491"><tspan
       sodipodi:role="line"
       id="tspan491"
       x="389.99405"
       y="86.645439">Passenger</tspan></text>
  <text
     xml:space="preserve"
     style="font-style:normal;font-variant:normal;font-weight:normal;font-stretch:normal;font-size:64px;line-height:0;font-family:Arial;-inkscape-font-specification:'Arial, Normal';font-variant-ligatures:normal;font-variant-caps:normal;font-variant-numeric:normal;font-variant-east-asian:normal;fill:#000000;stroke-width:1.4;stroke-dasharray:33.6, 1.4;stroke-dashoffset:0.7"
     x="293.89316"
     y="166.56055"
     id="text492"><tspan
       sodipodi:role="line"
       id="tspan492"
       x="293.89316"
       y="166.56055">Transportation</tspan></text>
  <text
     xml:space="preserve"
     style="font-style:normal;font-variant:normal;font-weight:normal;font-stretch:normal;font-size:64px;line-height:0;font-family:Arial;-inkscape-font-specification:'Arial, Normal';font-variant-ligatures:normal;font-variant-caps:normal;font-variant-numeric:normal;font-variant-east-asian:normal;fill:#000000;stroke-width:1.4;stroke-dasharray:33.6, 1.4;stroke-dashoffset:0.7"
     x="501.25388"
     y="924.34814"
     id="text493"><tspan
       sodipodi:role="line"
       id="tspan493"
       x="501.25388"
       y="924.34814">Fishing</tspan></text>
  <text
     xml:space="preserve"
     style="font-style:normal;font-variant:normal;font-weight:normal;font-stretch:normal;font-size:64px;line-height:0;font-family:Arial;-inkscape-font-specification:'Arial, Normal';font-variant-ligatures:normal;font-variant-caps:normal;font-variant-numeric:normal;font-variant-east-asian:normal;fill:#000000;stroke-width:1.4;stroke-dasharray:33.6, 1.4;stroke-dashoffset:0.7"
     x="231.46875"
     y="1081.2268"
     id="text494"><tspan
       sodipodi:role="line"
       id="tspan494"
       x="231.46875"
       y="1081.2268">Medicine Supply</tspan></text>
  <text
     xml:space="preserve"
     style="font-style:normal;font-variant:normal;font-weight:normal;font-stretch:normal;font-size:64px;line-height:0;font-family:Arial;-inkscape-font-specification:'Arial, Normal';font-variant-ligatures:normal;font-variant-caps:normal;font-variant-numeric:normal;font-variant-east-asian:normal;fill:#000000;stroke-width:1.4;stroke-dasharray:33.6, 1.4;stroke-dashoffset:0.7"
     x="392.51562"
     y="1232.5435"
     id="text495"><tspan
       sodipodi:role="line"
       id="tspan495"
       x="392.51562"
       y="1232.5435">Healthcare</tspan></text>
  <text
     xml:space="preserve"
     style="font-style:normal;font-variant:normal;font-weight:normal;font-stretch:normal;font-size:64px;line-height:0;font-family:Arial;-inkscape-font-specification:'Arial, Normal';font-variant-ligatures:normal;font-variant-caps:normal;font-variant-numeric:normal;font-variant-east-asian:normal;fill:#000000;stroke-width:1.4;stroke-dasharray:33.6, 1.4;stroke-dashoffset:0.7"
     x="276.94928"
     y="1390.2168"
     id="text496"><tspan
       sodipodi:role="line"
       id="tspan496"
       x="276.94928"
       y="1390.2168">Energy Access</tspan></text>
  <text
     xml:space="preserve"
     style="font-style:normal;font-variant:normal;font-weight:normal;font-stretch:normal;font-size:64px;line-height:0;font-family:Arial;-inkscape-font-specification:'Arial, Normal';font-variant-ligatures:normal;font-variant-caps:normal;font-variant-numeric:normal;font-variant-east-asian:normal;fill:#000000;stroke-width:1.4;stroke-dasharray:33.6, 1.4;stroke-dashoffset:0.7"
     x="417.54303"
     y="1552.167"
     id="text497"><tspan
       sodipodi:role="line"
       id="tspan497"
       x="417.54303"
       y="1552.167">Education</tspan></text>
  <text
     xml:space="preserve"
     style="font-style:normal;font-variant:normal;font-weight:normal;font-stretch:normal;font-size:64px;line-height:0;font-family:Arial;-inkscape-font-specification:'Arial, Normal';font-variant-ligatures:normal;font-variant-caps:normal;font-variant-numeric:normal;font-variant-east-asian:normal;fill:#000000;stroke-width:1.4;stroke-dasharray:33.6, 1.4;stroke-dashoffset:0.7"
     x="488.99588"
     y="1701.3984"
     id="text498"><tspan
       sodipodi:role="line"
       id="tspan498"
       x="488.99588"
       y="1701.3984">Leisure</tspan></text>
  <text
     xml:space="preserve"
     style="font-style:normal;font-variant:normal;font-weight:normal;font-stretch:normal;font-size:64px;line-height:0;font-family:Arial;-inkscape-font-specification:'Arial, Normal';font-variant-ligatures:normal;font-variant-caps:normal;font-variant-numeric:normal;font-variant-east-asian:normal;fill:#000000;stroke-width:1.4;stroke-dasharray:33.6, 1.4;stroke-dashoffset:0.7"
     x="485.31665"
     y="1856.6299"
     id="text499"><tspan
       sodipodi:role="line"
       id="tspan499"
       x="485.31665"
       y="1856.6299">Hunting</tspan></text>
  <text
     xml:space="preserve"
     style="font-style:normal;font-variant:normal;font-weight:normal;font-stretch:normal;font-size:64px;line-height:0;font-family:Arial;-inkscape-font-specification:'Arial, Normal';font-variant-ligatures:normal;font-variant-caps:normal;font-variant-numeric:normal;font-variant-east-asian:normal;fill:#000000;stroke-width:1.4;stroke-dasharray:33.6, 1.4;stroke-dashoffset:0.7"
     x="398.97549"
     y="2014.5801"
     id="text500"><tspan
       sodipodi:role="line"
       id="tspan500"
       x="398.97549"
       y="2014.5801">Agriculture</tspan></text>
  <text
     xml:space="preserve"
     style="font-style:normal;font-variant:normal;font-weight:normal;font-stretch:normal;font-size:64px;line-height:0;font-family:Arial;-inkscape-font-specification:'Arial, Normal';font-variant-ligatures:normal;font-variant-caps:normal;font-variant-numeric:normal;font-variant-east-asian:normal;fill:#000000;stroke-width:1.4;stroke-dasharray:33.6, 1.4;stroke-dashoffset:0.7"
     x="345.85278"
     y="2177.3115"
     id="text501"><tspan
       sodipodi:role="line"
       id="tspan501"
       x="345.85278"
       y="2177.3115">Post Service</tspan></text>
  <text
     xml:space="preserve"
     style="font-style:normal;font-variant:normal;font-weight:normal;font-stretch:normal;font-size:64px;line-height:0;font-family:Arial;-inkscape-font-specification:'Arial, Normal';font-variant-ligatures:normal;font-variant-caps:normal;font-variant-numeric:normal;font-variant-east-asian:normal;fill:#000000;stroke-width:1.4;stroke-dasharray:33.6, 1.4;stroke-dashoffset:0.7"
     x="352.32153"
     y="2333.3555"
     id="text502"><tspan
       sodipodi:role="line"
       id="tspan502"
       x="352.32153"
       y="2333.3555">Pest Control</tspan></text>
  <text
     xml:space="preserve"
     style="font-style:normal;font-variant:normal;font-weight:normal;font-stretch:normal;font-size:64px;line-height:0;font-family:Arial;-inkscape-font-specification:'Arial, Normal';font-variant-ligatures:normal;font-variant-caps:normal;font-variant-numeric:normal;font-variant-east-asian:normal;fill:#000000;stroke-width:1.4;stroke-dasharray:33.6, 1.4;stroke-dashoffset:0.7"
     x="1675.1562"
     y="2660.5984"
     id="text503"><tspan
       sodipodi:role="line"
       id="tspan503"
       x="1675.1562"
       y="2660.5984">Number of Statements</tspan></text>
</svg>
